<?xml version="1.0" encoding="UTF-8" standalone="no"?>
<!DOCTYPE svg PUBLIC "-//W3C//DTD SVG 1.1//EN" "http://www.w3.org/Graphics/SVG/1.1/DTD/svg11.dtd">
<!-- 由 Microsoft Visio, SVG Export 生成 CST.svg Page-1 -->
<svg xmlns="http://www.w3.org/2000/svg" xmlns:xlink="http://www.w3.org/1999/xlink" xmlns:ev="http://www.w3.org/2001/xml-events"
		xmlns:v="http://schemas.microsoft.com/visio/2003/SVGExtensions/" width="5.44634in" height="5.44528in"
		viewBox="0 0 392.136 392.06" xml:space="preserve" color-interpolation-filters="sRGB" class="st3">
	<v:documentProperties v:langID="2052" v:metric="true" v:viewMarkup="false">
		<v:userDefs>
			<v:ud v:nameU="msvNoAutoConnect" v:val="VT0(1):26"/>
		</v:userDefs>
	</v:documentProperties>

	<style type="text/css">
	<![CDATA[
		.st1 {fill:#e8e8e8;stroke:none;stroke-linecap:round;stroke-linejoin:round;stroke-width:0.75}
		.st2 {fill:#ffffff;stroke:none;stroke-linecap:round;stroke-linejoin:round;stroke-width:0.75}
		.st3 {fill:none;fill-rule:evenodd;font-size:12px;overflow:visible;stroke-linecap:square;stroke-miterlimit:3}
	]]>
	</style>

	<g v:mID="0" v:index="1" v:groupContext="foregroundPage">
		<title>页-1</title>
		<v:pageProperties v:drawingScale="0.0393701" v:pageScale="0.0393701" v:drawingUnits="24" v:shadowOffsetX="8.50394"
				v:shadowOffsetY="-8.50394"/>
		<g id="shape3-1" v:mID="3" v:groupContext="shape" transform="translate(18,-18)">
			<title>工作表.3</title>
			<path d="M0 36 L0 392.06 L356.14 392.06 L356.14 36 L0 36 L0 36 Z" class="st1"/>
		</g>
		<g id="shape4-3" v:mID="4" v:groupContext="shape" transform="translate(68.7667,-141.814)">
			<title>工作表.4</title>
			<path d="M0 210.57 L0 392.06 L36.15 392.06 L36.15 210.57 L0 210.57 L0 210.57 Z" class="st2"/>
		</g>
		<g id="shape5-5" v:mID="5" v:groupContext="shape" transform="translate(68.7667,-287.16)">
			<title>工作表.5</title>
			<path d="M0 361.97 C0 358.66 2.74 355.92 6.06 355.92 L175.52 355.92 C178.84 355.92 181.53 358.66 181.53 361.97 L181.53
						 386.05 C181.53 389.37 178.84 392.06 175.52 392.06 L6.06 392.06 C2.74 392.06 0 389.37 0 386.05 L0 361.97
						 Z" class="st2"/>
		</g>
		<g id="shape6-7" v:mID="6" v:groupContext="shape" transform="translate(68.7667,-141.814)">
			<title>工作表.6</title>
			<path d="M0 361.97 C0 358.66 2.74 355.92 6.06 355.92 L175.52 355.92 C178.84 355.92 181.53 358.66 181.53 361.97 L181.53
						 386.05 C181.53 389.37 178.84 392.06 175.52 392.06 L6.06 392.06 C2.74 392.06 0 389.37 0 386.05 L0 361.97
						 Z" class="st2"/>
		</g>
		<g id="shape7-9" v:mID="7" v:groupContext="shape" transform="translate(141.84,-214.102)">
			<title>工作表.7</title>
			<path d="M0 361.97 C0 358.66 2.74 355.92 6.06 355.92 L175.52 355.92 C178.84 355.92 181.53 358.66 181.53 361.97 L181.53
						 386.05 C181.53 389.37 178.84 392.06 175.52 392.06 L6.06 392.06 C2.74 392.06 0 389.37 0 386.05 L0 361.97
						 Z" class="st2"/>
		</g>
		<g id="shape8-11" v:mID="8" v:groupContext="shape" transform="translate(141.84,-68.7559)">
			<title>工作表.8</title>
			<path d="M0 361.97 C0 358.66 2.74 355.92 6.06 355.92 L175.52 355.92 C178.84 355.92 181.53 358.66 181.53 361.97 L181.53
						 386.05 C181.53 389.37 178.84 392.06 175.52 392.06 L6.06 392.06 C2.74 392.06 0 389.37 0 386.05 L0 361.97
						 Z" class="st2"/>
		</g>
		<g id="shape9-13" v:mID="9" v:groupContext="shape" transform="translate(287.218,-68.7559)">
			<title>工作表.9</title>
			<path d="M0 210.57 L0 392.06 L36.15 392.06 L36.15 210.57 L0 210.57 L0 210.57 Z" class="st2"/>
		</g>
	</g>
</svg>
